<mxfile>
    <diagram name="Page-1" id="9f46799a-70d6-7492-0946-bef42562c5a5">
        <mxGraphModel dx="198" dy="491" grid="1" gridSize="10" guides="1" tooltips="1" connect="1" arrows="1" fold="1" page="1" pageScale="1" pageWidth="1100" pageHeight="850" background="#ffffff" math="0" shadow="0">
            <root>
                <mxCell id="0"/>
                <mxCell id="1" parent="0"/>
                <mxCell id="78961159f06e98e8-17" value="Marcas" style="swimlane;html=1;fontStyle=1;align=center;verticalAlign=top;childLayout=stackLayout;horizontal=1;startSize=26;horizontalStack=0;resizeParent=1;resizeLast=0;collapsible=1;marginBottom=0;swimlaneFillColor=#ffffff;rounded=0;shadow=0;comic=0;labelBackgroundColor=none;strokeWidth=1;fillColor=#60a917;fontFamily=Verdana;fontSize=12;strokeColor=#2D7600;fontColor=#ffffff;" parent="1" vertex="1">
                    <mxGeometry x="320" y="80" width="160" height="104" as="geometry"/>
                </mxCell>
                <mxCell id="78961159f06e98e8-21" value="id: ObjectID " style="text;html=1;strokeColor=none;fillColor=none;align=left;verticalAlign=top;spacingLeft=4;spacingRight=4;whiteSpace=wrap;overflow=hidden;rotatable=0;points=[[0,0.5],[1,0.5]];portConstraint=eastwest;" parent="78961159f06e98e8-17" vertex="1">
                    <mxGeometry y="26" width="160" height="26" as="geometry"/>
                </mxCell>
                <mxCell id="78961159f06e98e8-23" value="name: string" style="text;html=1;strokeColor=none;fillColor=none;align=left;verticalAlign=top;spacingLeft=4;spacingRight=4;whiteSpace=wrap;overflow=hidden;rotatable=0;points=[[0,0.5],[1,0.5]];portConstraint=eastwest;" parent="78961159f06e98e8-17" vertex="1">
                    <mxGeometry y="52" width="160" height="26" as="geometry"/>
                </mxCell>
                <mxCell id="78961159f06e98e8-25" value="disabled: boolean" style="text;html=1;strokeColor=none;fillColor=none;align=left;verticalAlign=top;spacingLeft=4;spacingRight=4;whiteSpace=wrap;overflow=hidden;rotatable=0;points=[[0,0.5],[1,0.5]];portConstraint=eastwest;" parent="78961159f06e98e8-17" vertex="1">
                    <mxGeometry y="78" width="160" height="26" as="geometry"/>
                </mxCell>
                <mxCell id="UkoYvVbDAvJKvkNs7AJX-4" value="Tipos de articulos" style="swimlane;html=1;fontStyle=1;align=center;verticalAlign=top;childLayout=stackLayout;horizontal=1;startSize=26;horizontalStack=0;resizeParent=1;resizeLast=0;collapsible=1;marginBottom=0;swimlaneFillColor=#ffffff;rounded=0;shadow=0;comic=0;labelBackgroundColor=none;strokeWidth=1;fillColor=#008a00;fontFamily=Verdana;fontSize=12;strokeColor=#005700;fontColor=#ffffff;" parent="1" vertex="1">
                    <mxGeometry x="550" y="70" width="160" height="104" as="geometry"/>
                </mxCell>
                <mxCell id="UkoYvVbDAvJKvkNs7AJX-5" value="id: ObjectID " style="text;html=1;strokeColor=none;fillColor=none;align=left;verticalAlign=top;spacingLeft=4;spacingRight=4;whiteSpace=wrap;overflow=hidden;rotatable=0;points=[[0,0.5],[1,0.5]];portConstraint=eastwest;" parent="UkoYvVbDAvJKvkNs7AJX-4" vertex="1">
                    <mxGeometry y="26" width="160" height="26" as="geometry"/>
                </mxCell>
                <mxCell id="UkoYvVbDAvJKvkNs7AJX-6" value="name: string" style="text;html=1;strokeColor=none;fillColor=none;align=left;verticalAlign=top;spacingLeft=4;spacingRight=4;whiteSpace=wrap;overflow=hidden;rotatable=0;points=[[0,0.5],[1,0.5]];portConstraint=eastwest;" parent="UkoYvVbDAvJKvkNs7AJX-4" vertex="1">
                    <mxGeometry y="52" width="160" height="26" as="geometry"/>
                </mxCell>
                <mxCell id="UkoYvVbDAvJKvkNs7AJX-7" value="disabled: boolean" style="text;html=1;strokeColor=none;fillColor=none;align=left;verticalAlign=top;spacingLeft=4;spacingRight=4;whiteSpace=wrap;overflow=hidden;rotatable=0;points=[[0,0.5],[1,0.5]];portConstraint=eastwest;" parent="UkoYvVbDAvJKvkNs7AJX-4" vertex="1">
                    <mxGeometry y="78" width="160" height="26" as="geometry"/>
                </mxCell>
                <mxCell id="UkoYvVbDAvJKvkNs7AJX-8" value="Productos" style="swimlane;html=1;fontStyle=1;align=center;verticalAlign=top;childLayout=stackLayout;horizontal=1;startSize=26;horizontalStack=0;resizeParent=1;resizeLast=0;collapsible=1;marginBottom=0;swimlaneFillColor=#ffffff;rounded=0;shadow=0;comic=0;labelBackgroundColor=none;strokeWidth=1;fillColor=#1ba1e2;fontFamily=Verdana;fontSize=12;strokeColor=#006EAF;fontColor=#ffffff;" parent="1" vertex="1">
                    <mxGeometry x="90" y="200" width="160" height="286" as="geometry"/>
                </mxCell>
                <mxCell id="UkoYvVbDAvJKvkNs7AJX-9" value="id: ObjectID " style="text;html=1;strokeColor=none;fillColor=none;align=left;verticalAlign=top;spacingLeft=4;spacingRight=4;whiteSpace=wrap;overflow=hidden;rotatable=0;points=[[0,0.5],[1,0.5]];portConstraint=eastwest;" parent="UkoYvVbDAvJKvkNs7AJX-8" vertex="1">
                    <mxGeometry y="26" width="160" height="26" as="geometry"/>
                </mxCell>
                <mxCell id="UkoYvVbDAvJKvkNs7AJX-10" value="name: string" style="text;html=1;strokeColor=none;fillColor=none;align=left;verticalAlign=top;spacingLeft=4;spacingRight=4;whiteSpace=wrap;overflow=hidden;rotatable=0;points=[[0,0.5],[1,0.5]];portConstraint=eastwest;" parent="UkoYvVbDAvJKvkNs7AJX-8" vertex="1">
                    <mxGeometry y="52" width="160" height="26" as="geometry"/>
                </mxCell>
                <mxCell id="UkoYvVbDAvJKvkNs7AJX-11" value="image: buffer" style="text;html=1;strokeColor=none;fillColor=none;align=left;verticalAlign=top;spacingLeft=4;spacingRight=4;whiteSpace=wrap;overflow=hidden;rotatable=0;points=[[0,0.5],[1,0.5]];portConstraint=eastwest;" parent="UkoYvVbDAvJKvkNs7AJX-8" vertex="1">
                    <mxGeometry y="78" width="160" height="26" as="geometry"/>
                </mxCell>
                <mxCell id="UkoYvVbDAvJKvkNs7AJX-12" value="price: number" style="text;html=1;strokeColor=none;fillColor=none;align=left;verticalAlign=top;spacingLeft=4;spacingRight=4;whiteSpace=wrap;overflow=hidden;rotatable=0;points=[[0,0.5],[1,0.5]];portConstraint=eastwest;" parent="UkoYvVbDAvJKvkNs7AJX-8" vertex="1">
                    <mxGeometry y="104" width="160" height="26" as="geometry"/>
                </mxCell>
                <mxCell id="UkoYvVbDAvJKvkNs7AJX-13" value="quantity: number" style="text;html=1;strokeColor=none;fillColor=none;align=left;verticalAlign=top;spacingLeft=4;spacingRight=4;whiteSpace=wrap;overflow=hidden;rotatable=0;points=[[0,0.5],[1,0.5]];portConstraint=eastwest;" parent="UkoYvVbDAvJKvkNs7AJX-8" vertex="1">
                    <mxGeometry y="130" width="160" height="26" as="geometry"/>
                </mxCell>
                <mxCell id="UkoYvVbDAvJKvkNs7AJX-14" value="type: ObjectID" style="text;html=1;strokeColor=none;fillColor=none;align=left;verticalAlign=top;spacingLeft=4;spacingRight=4;whiteSpace=wrap;overflow=hidden;rotatable=0;points=[[0,0.5],[1,0.5]];portConstraint=eastwest;" parent="UkoYvVbDAvJKvkNs7AJX-8" vertex="1">
                    <mxGeometry y="156" width="160" height="26" as="geometry"/>
                </mxCell>
                <mxCell id="UkoYvVbDAvJKvkNs7AJX-15" value="disabled: boolean" style="text;html=1;strokeColor=none;fillColor=none;align=left;verticalAlign=top;spacingLeft=4;spacingRight=4;whiteSpace=wrap;overflow=hidden;rotatable=0;points=[[0,0.5],[1,0.5]];portConstraint=eastwest;" parent="UkoYvVbDAvJKvkNs7AJX-8" vertex="1">
                    <mxGeometry y="182" width="160" height="26" as="geometry"/>
                </mxCell>
                <mxCell id="UkoYvVbDAvJKvkNs7AJX-74" value="brand: ObjectID" style="text;html=1;strokeColor=none;fillColor=none;align=left;verticalAlign=top;spacingLeft=4;spacingRight=4;whiteSpace=wrap;overflow=hidden;rotatable=0;points=[[0,0.5],[1,0.5]];portConstraint=eastwest;" parent="UkoYvVbDAvJKvkNs7AJX-8" vertex="1">
                    <mxGeometry y="208" width="160" height="26" as="geometry"/>
                </mxCell>
                <mxCell id="UkoYvVbDAvJKvkNs7AJX-25" value="articleType: ObjectID" style="text;html=1;strokeColor=none;fillColor=none;align=left;verticalAlign=top;spacingLeft=4;spacingRight=4;whiteSpace=wrap;overflow=hidden;rotatable=0;points=[[0,0.5],[1,0.5]];portConstraint=eastwest;" parent="UkoYvVbDAvJKvkNs7AJX-8" vertex="1">
                    <mxGeometry y="234" width="160" height="26" as="geometry"/>
                </mxCell>
                <mxCell id="UkoYvVbDAvJKvkNs7AJX-75" value="history: collection" style="text;html=1;strokeColor=none;fillColor=none;align=left;verticalAlign=top;spacingLeft=4;spacingRight=4;whiteSpace=wrap;overflow=hidden;rotatable=0;points=[[0,0.5],[1,0.5]];portConstraint=eastwest;" parent="UkoYvVbDAvJKvkNs7AJX-8" vertex="1">
                    <mxGeometry y="260" width="160" height="26" as="geometry"/>
                </mxCell>
                <mxCell id="UkoYvVbDAvJKvkNs7AJX-17" value="&lt;div&gt;SubColecciÃ³n &lt;br&gt;&lt;/div&gt;&lt;div&gt;productos&lt;/div&gt;" style="swimlane;html=1;fontStyle=1;align=center;verticalAlign=top;childLayout=stackLayout;horizontal=1;startSize=45;horizontalStack=0;resizeParent=1;resizeLast=0;collapsible=1;marginBottom=0;swimlaneFillColor=#ffffff;rounded=0;shadow=0;comic=0;labelBackgroundColor=none;strokeWidth=1;fillColor=#1ba1e2;fontFamily=Verdana;fontSize=12;strokeColor=#006EAF;fontColor=#ffffff;" parent="1" vertex="1">
                    <mxGeometry x="350" y="351" width="160" height="149" as="geometry"/>
                </mxCell>
                <mxCell id="UkoYvVbDAvJKvkNs7AJX-18" value="date: Date " style="text;html=1;strokeColor=none;fillColor=none;align=left;verticalAlign=top;spacingLeft=4;spacingRight=4;whiteSpace=wrap;overflow=hidden;rotatable=0;points=[[0,0.5],[1,0.5]];portConstraint=eastwest;" parent="UkoYvVbDAvJKvkNs7AJX-17" vertex="1">
                    <mxGeometry y="45" width="160" height="26" as="geometry"/>
                </mxCell>
                <mxCell id="UkoYvVbDAvJKvkNs7AJX-19" value="quantity: number" style="text;html=1;strokeColor=none;fillColor=none;align=left;verticalAlign=top;spacingLeft=4;spacingRight=4;whiteSpace=wrap;overflow=hidden;rotatable=0;points=[[0,0.5],[1,0.5]];portConstraint=eastwest;" parent="UkoYvVbDAvJKvkNs7AJX-17" vertex="1">
                    <mxGeometry y="71" width="160" height="26" as="geometry"/>
                </mxCell>
                <mxCell id="UkoYvVbDAvJKvkNs7AJX-20" value="madeBy: ObjectID" style="text;html=1;strokeColor=none;fillColor=none;align=left;verticalAlign=top;spacingLeft=4;spacingRight=4;whiteSpace=wrap;overflow=hidden;rotatable=0;points=[[0,0.5],[1,0.5]];portConstraint=eastwest;" parent="UkoYvVbDAvJKvkNs7AJX-17" vertex="1">
                    <mxGeometry y="97" width="160" height="26" as="geometry"/>
                </mxCell>
                <mxCell id="UkoYvVbDAvJKvkNs7AJX-21" value="type: string" style="text;html=1;strokeColor=none;fillColor=none;align=left;verticalAlign=top;spacingLeft=4;spacingRight=4;whiteSpace=wrap;overflow=hidden;rotatable=0;points=[[0,0.5],[1,0.5]];portConstraint=eastwest;" parent="UkoYvVbDAvJKvkNs7AJX-17" vertex="1">
                    <mxGeometry y="123" width="160" height="26" as="geometry"/>
                </mxCell>
                <mxCell id="UkoYvVbDAvJKvkNs7AJX-26" value="Ventas" style="swimlane;html=1;fontStyle=1;align=center;verticalAlign=top;childLayout=stackLayout;horizontal=1;startSize=26;horizontalStack=0;resizeParent=1;resizeLast=0;collapsible=1;marginBottom=0;swimlaneFillColor=#ffffff;rounded=0;shadow=0;comic=0;labelBackgroundColor=none;strokeWidth=1;fillColor=#0050ef;fontFamily=Verdana;fontSize=12;strokeColor=#001DBC;fontColor=#ffffff;" parent="1" vertex="1">
                    <mxGeometry x="630" y="226" width="160" height="234" as="geometry"/>
                </mxCell>
                <mxCell id="UkoYvVbDAvJKvkNs7AJX-27" value="id: ObjectID " style="text;html=1;strokeColor=none;fillColor=none;align=left;verticalAlign=top;spacingLeft=4;spacingRight=4;whiteSpace=wrap;overflow=hidden;rotatable=0;points=[[0,0.5],[1,0.5]];portConstraint=eastwest;" parent="UkoYvVbDAvJKvkNs7AJX-26" vertex="1">
                    <mxGeometry y="26" width="160" height="26" as="geometry"/>
                </mxCell>
                <mxCell id="UkoYvVbDAvJKvkNs7AJX-28" value="date: Date" style="text;html=1;strokeColor=none;fillColor=none;align=left;verticalAlign=top;spacingLeft=4;spacingRight=4;whiteSpace=wrap;overflow=hidden;rotatable=0;points=[[0,0.5],[1,0.5]];portConstraint=eastwest;" parent="UkoYvVbDAvJKvkNs7AJX-26" vertex="1">
                    <mxGeometry y="52" width="160" height="26" as="geometry"/>
                </mxCell>
                <mxCell id="UkoYvVbDAvJKvkNs7AJX-29" value="total: number" style="text;html=1;strokeColor=none;fillColor=none;align=left;verticalAlign=top;spacingLeft=4;spacingRight=4;whiteSpace=wrap;overflow=hidden;rotatable=0;points=[[0,0.5],[1,0.5]];portConstraint=eastwest;" parent="UkoYvVbDAvJKvkNs7AJX-26" vertex="1">
                    <mxGeometry y="78" width="160" height="26" as="geometry"/>
                </mxCell>
                <mxCell id="UkoYvVbDAvJKvkNs7AJX-30" value="description: string" style="text;html=1;strokeColor=none;fillColor=none;align=left;verticalAlign=top;spacingLeft=4;spacingRight=4;whiteSpace=wrap;overflow=hidden;rotatable=0;points=[[0,0.5],[1,0.5]];portConstraint=eastwest;" parent="UkoYvVbDAvJKvkNs7AJX-26" vertex="1">
                    <mxGeometry y="104" width="160" height="26" as="geometry"/>
                </mxCell>
                <mxCell id="UkoYvVbDAvJKvkNs7AJX-31" value="discount: number" style="text;html=1;strokeColor=none;fillColor=none;align=left;verticalAlign=top;spacingLeft=4;spacingRight=4;whiteSpace=wrap;overflow=hidden;rotatable=0;points=[[0,0.5],[1,0.5]];portConstraint=eastwest;" parent="UkoYvVbDAvJKvkNs7AJX-26" vertex="1">
                    <mxGeometry y="130" width="160" height="26" as="geometry"/>
                </mxCell>
                <mxCell id="UkoYvVbDAvJKvkNs7AJX-32" value="canceled: boolean" style="text;html=1;strokeColor=none;fillColor=none;align=left;verticalAlign=top;spacingLeft=4;spacingRight=4;whiteSpace=wrap;overflow=hidden;rotatable=0;points=[[0,0.5],[1,0.5]];portConstraint=eastwest;" parent="UkoYvVbDAvJKvkNs7AJX-26" vertex="1">
                    <mxGeometry y="156" width="160" height="26" as="geometry"/>
                </mxCell>
                <mxCell id="UkoYvVbDAvJKvkNs7AJX-33" value="madeBy: ObjectID" style="text;html=1;strokeColor=none;fillColor=none;align=left;verticalAlign=top;spacingLeft=4;spacingRight=4;whiteSpace=wrap;overflow=hidden;rotatable=0;points=[[0,0.5],[1,0.5]];portConstraint=eastwest;" parent="UkoYvVbDAvJKvkNs7AJX-26" vertex="1">
                    <mxGeometry y="182" width="160" height="26" as="geometry"/>
                </mxCell>
                <mxCell id="UkoYvVbDAvJKvkNs7AJX-34" value="detail: collection" style="text;html=1;strokeColor=none;fillColor=none;align=left;verticalAlign=top;spacingLeft=4;spacingRight=4;whiteSpace=wrap;overflow=hidden;rotatable=0;points=[[0,0.5],[1,0.5]];portConstraint=eastwest;" parent="UkoYvVbDAvJKvkNs7AJX-26" vertex="1">
                    <mxGeometry y="208" width="160" height="26" as="geometry"/>
                </mxCell>
                <mxCell id="UkoYvVbDAvJKvkNs7AJX-35" value="&lt;div&gt;SubColecciÃ³n &lt;br&gt;&lt;/div&gt;&lt;div&gt;ventas&lt;/div&gt;" style="swimlane;html=1;fontStyle=1;align=center;verticalAlign=top;childLayout=stackLayout;horizontal=1;startSize=45;horizontalStack=0;resizeParent=1;resizeLast=0;collapsible=1;marginBottom=0;swimlaneFillColor=#ffffff;rounded=0;shadow=0;comic=0;labelBackgroundColor=none;strokeWidth=1;fillColor=#0050ef;fontFamily=Verdana;fontSize=12;strokeColor=#001DBC;fontColor=#ffffff;" parent="1" vertex="1">
                    <mxGeometry x="830" y="231" width="160" height="175" as="geometry"/>
                </mxCell>
                <mxCell id="UkoYvVbDAvJKvkNs7AJX-36" value="productID: ObjectID " style="text;html=1;strokeColor=none;fillColor=none;align=left;verticalAlign=top;spacingLeft=4;spacingRight=4;whiteSpace=wrap;overflow=hidden;rotatable=0;points=[[0,0.5],[1,0.5]];portConstraint=eastwest;" parent="UkoYvVbDAvJKvkNs7AJX-35" vertex="1">
                    <mxGeometry y="45" width="160" height="26" as="geometry"/>
                </mxCell>
                <mxCell id="UkoYvVbDAvJKvkNs7AJX-37" value="quantity: number" style="text;html=1;strokeColor=none;fillColor=none;align=left;verticalAlign=top;spacingLeft=4;spacingRight=4;whiteSpace=wrap;overflow=hidden;rotatable=0;points=[[0,0.5],[1,0.5]];portConstraint=eastwest;" parent="UkoYvVbDAvJKvkNs7AJX-35" vertex="1">
                    <mxGeometry y="71" width="160" height="26" as="geometry"/>
                </mxCell>
                <mxCell id="UkoYvVbDAvJKvkNs7AJX-38" value="unitPrice: number" style="text;html=1;strokeColor=none;fillColor=none;align=left;verticalAlign=top;spacingLeft=4;spacingRight=4;whiteSpace=wrap;overflow=hidden;rotatable=0;points=[[0,0.5],[1,0.5]];portConstraint=eastwest;" parent="UkoYvVbDAvJKvkNs7AJX-35" vertex="1">
                    <mxGeometry y="97" width="160" height="26" as="geometry"/>
                </mxCell>
                <mxCell id="UkoYvVbDAvJKvkNs7AJX-39" value="changed: boolean" style="text;html=1;strokeColor=none;fillColor=none;align=left;verticalAlign=top;spacingLeft=4;spacingRight=4;whiteSpace=wrap;overflow=hidden;rotatable=0;points=[[0,0.5],[1,0.5]];portConstraint=eastwest;" parent="UkoYvVbDAvJKvkNs7AJX-35" vertex="1">
                    <mxGeometry y="123" width="160" height="26" as="geometry"/>
                </mxCell>
                <mxCell id="UkoYvVbDAvJKvkNs7AJX-40" value="added: boolean" style="text;html=1;strokeColor=none;fillColor=none;align=left;verticalAlign=top;spacingLeft=4;spacingRight=4;whiteSpace=wrap;overflow=hidden;rotatable=0;points=[[0,0.5],[1,0.5]];portConstraint=eastwest;" parent="UkoYvVbDAvJKvkNs7AJX-35" vertex="1">
                    <mxGeometry y="149" width="160" height="26" as="geometry"/>
                </mxCell>
                <mxCell id="UkoYvVbDAvJKvkNs7AJX-42" value="Cotizaciones" style="swimlane;html=1;fontStyle=1;align=center;verticalAlign=top;childLayout=stackLayout;horizontal=1;startSize=26;horizontalStack=0;resizeParent=1;resizeLast=0;collapsible=1;marginBottom=0;swimlaneFillColor=#ffffff;rounded=0;shadow=0;comic=0;labelBackgroundColor=none;strokeWidth=1;fillColor=#6a00ff;fontFamily=Verdana;fontSize=12;strokeColor=#3700CC;fontColor=#ffffff;" parent="1" vertex="1">
                    <mxGeometry x="90" y="560" width="160" height="208" as="geometry"/>
                </mxCell>
                <mxCell id="UkoYvVbDAvJKvkNs7AJX-43" value="id: ObjectID " style="text;html=1;strokeColor=none;fillColor=none;align=left;verticalAlign=top;spacingLeft=4;spacingRight=4;whiteSpace=wrap;overflow=hidden;rotatable=0;points=[[0,0.5],[1,0.5]];portConstraint=eastwest;" parent="UkoYvVbDAvJKvkNs7AJX-42" vertex="1">
                    <mxGeometry y="26" width="160" height="26" as="geometry"/>
                </mxCell>
                <mxCell id="UkoYvVbDAvJKvkNs7AJX-44" value="date: Date" style="text;html=1;strokeColor=none;fillColor=none;align=left;verticalAlign=top;spacingLeft=4;spacingRight=4;whiteSpace=wrap;overflow=hidden;rotatable=0;points=[[0,0.5],[1,0.5]];portConstraint=eastwest;" parent="UkoYvVbDAvJKvkNs7AJX-42" vertex="1">
                    <mxGeometry y="52" width="160" height="26" as="geometry"/>
                </mxCell>
                <mxCell id="UkoYvVbDAvJKvkNs7AJX-45" value="total: number" style="text;html=1;strokeColor=none;fillColor=none;align=left;verticalAlign=top;spacingLeft=4;spacingRight=4;whiteSpace=wrap;overflow=hidden;rotatable=0;points=[[0,0.5],[1,0.5]];portConstraint=eastwest;" parent="UkoYvVbDAvJKvkNs7AJX-42" vertex="1">
                    <mxGeometry y="78" width="160" height="26" as="geometry"/>
                </mxCell>
                <mxCell id="UkoYvVbDAvJKvkNs7AJX-46" value="description: string" style="text;html=1;strokeColor=none;fillColor=none;align=left;verticalAlign=top;spacingLeft=4;spacingRight=4;whiteSpace=wrap;overflow=hidden;rotatable=0;points=[[0,0.5],[1,0.5]];portConstraint=eastwest;" parent="UkoYvVbDAvJKvkNs7AJX-42" vertex="1">
                    <mxGeometry y="104" width="160" height="26" as="geometry"/>
                </mxCell>
                <mxCell id="UkoYvVbDAvJKvkNs7AJX-47" value="discount: number" style="text;html=1;strokeColor=none;fillColor=none;align=left;verticalAlign=top;spacingLeft=4;spacingRight=4;whiteSpace=wrap;overflow=hidden;rotatable=0;points=[[0,0.5],[1,0.5]];portConstraint=eastwest;" parent="UkoYvVbDAvJKvkNs7AJX-42" vertex="1">
                    <mxGeometry y="130" width="160" height="26" as="geometry"/>
                </mxCell>
                <mxCell id="UkoYvVbDAvJKvkNs7AJX-48" value="sale: boolean" style="text;html=1;strokeColor=none;fillColor=none;align=left;verticalAlign=top;spacingLeft=4;spacingRight=4;whiteSpace=wrap;overflow=hidden;rotatable=0;points=[[0,0.5],[1,0.5]];portConstraint=eastwest;" parent="UkoYvVbDAvJKvkNs7AJX-42" vertex="1">
                    <mxGeometry y="156" width="160" height="26" as="geometry"/>
                </mxCell>
                <mxCell id="UkoYvVbDAvJKvkNs7AJX-50" value="detail: collection" style="text;html=1;strokeColor=none;fillColor=none;align=left;verticalAlign=top;spacingLeft=4;spacingRight=4;whiteSpace=wrap;overflow=hidden;rotatable=0;points=[[0,0.5],[1,0.5]];portConstraint=eastwest;" parent="UkoYvVbDAvJKvkNs7AJX-42" vertex="1">
                    <mxGeometry y="182" width="160" height="26" as="geometry"/>
                </mxCell>
                <mxCell id="UkoYvVbDAvJKvkNs7AJX-51" value="&lt;div&gt;SubColecciÃ³n &lt;br&gt;&lt;/div&gt;&lt;div&gt;cotizaciones&lt;/div&gt;" style="swimlane;html=1;fontStyle=1;align=center;verticalAlign=top;childLayout=stackLayout;horizontal=1;startSize=45;horizontalStack=0;resizeParent=1;resizeLast=0;collapsible=1;marginBottom=0;swimlaneFillColor=#ffffff;rounded=0;shadow=0;comic=0;labelBackgroundColor=none;strokeWidth=1;fillColor=#6a00ff;fontFamily=Verdana;fontSize=12;strokeColor=#3700CC;fontColor=#ffffff;" parent="1" vertex="1">
                    <mxGeometry x="290" y="565" width="160" height="123" as="geometry"/>
                </mxCell>
                <mxCell id="UkoYvVbDAvJKvkNs7AJX-52" value="productID: ObjectID " style="text;html=1;strokeColor=none;fillColor=none;align=left;verticalAlign=top;spacingLeft=4;spacingRight=4;whiteSpace=wrap;overflow=hidden;rotatable=0;points=[[0,0.5],[1,0.5]];portConstraint=eastwest;" parent="UkoYvVbDAvJKvkNs7AJX-51" vertex="1">
                    <mxGeometry y="45" width="160" height="26" as="geometry"/>
                </mxCell>
                <mxCell id="UkoYvVbDAvJKvkNs7AJX-53" value="quantity: number" style="text;html=1;strokeColor=none;fillColor=none;align=left;verticalAlign=top;spacingLeft=4;spacingRight=4;whiteSpace=wrap;overflow=hidden;rotatable=0;points=[[0,0.5],[1,0.5]];portConstraint=eastwest;" parent="UkoYvVbDAvJKvkNs7AJX-51" vertex="1">
                    <mxGeometry y="71" width="160" height="26" as="geometry"/>
                </mxCell>
                <mxCell id="UkoYvVbDAvJKvkNs7AJX-54" value="unitPrice: number" style="text;html=1;strokeColor=none;fillColor=none;align=left;verticalAlign=top;spacingLeft=4;spacingRight=4;whiteSpace=wrap;overflow=hidden;rotatable=0;points=[[0,0.5],[1,0.5]];portConstraint=eastwest;" parent="UkoYvVbDAvJKvkNs7AJX-51" vertex="1">
                    <mxGeometry y="97" width="160" height="26" as="geometry"/>
                </mxCell>
                <mxCell id="UkoYvVbDAvJKvkNs7AJX-65" value="Otros movimientos" style="swimlane;html=1;fontStyle=1;align=center;verticalAlign=top;childLayout=stackLayout;horizontal=1;startSize=30;horizontalStack=0;resizeParent=1;resizeLast=0;collapsible=1;marginBottom=0;swimlaneFillColor=#ffffff;rounded=0;shadow=0;comic=0;labelBackgroundColor=none;strokeWidth=1;fillColor=#d80073;fontFamily=Verdana;fontSize=12;strokeColor=#A50040;fontColor=#ffffff;" parent="1" vertex="1">
                    <mxGeometry x="640" y="570" width="160" height="108" as="geometry"/>
                </mxCell>
                <mxCell id="UkoYvVbDAvJKvkNs7AJX-66" value="description: string " style="text;html=1;strokeColor=none;fillColor=none;align=left;verticalAlign=top;spacingLeft=4;spacingRight=4;whiteSpace=wrap;overflow=hidden;rotatable=0;points=[[0,0.5],[1,0.5]];portConstraint=eastwest;" parent="UkoYvVbDAvJKvkNs7AJX-65" vertex="1">
                    <mxGeometry y="30" width="160" height="26" as="geometry"/>
                </mxCell>
                <mxCell id="UkoYvVbDAvJKvkNs7AJX-67" value="amount: number" style="text;html=1;strokeColor=none;fillColor=none;align=left;verticalAlign=top;spacingLeft=4;spacingRight=4;whiteSpace=wrap;overflow=hidden;rotatable=0;points=[[0,0.5],[1,0.5]];portConstraint=eastwest;" parent="UkoYvVbDAvJKvkNs7AJX-65" vertex="1">
                    <mxGeometry y="56" width="160" height="26" as="geometry"/>
                </mxCell>
                <mxCell id="UkoYvVbDAvJKvkNs7AJX-68" value="date: Date" style="text;html=1;strokeColor=none;fillColor=none;align=left;verticalAlign=top;spacingLeft=4;spacingRight=4;whiteSpace=wrap;overflow=hidden;rotatable=0;points=[[0,0.5],[1,0.5]];portConstraint=eastwest;" parent="UkoYvVbDAvJKvkNs7AJX-65" vertex="1">
                    <mxGeometry y="82" width="160" height="26" as="geometry"/>
                </mxCell>
                <mxCell id="UkoYvVbDAvJKvkNs7AJX-69" value="Cortes de caja" style="swimlane;html=1;fontStyle=1;align=center;verticalAlign=top;childLayout=stackLayout;horizontal=1;startSize=30;horizontalStack=0;resizeParent=1;resizeLast=0;collapsible=1;marginBottom=0;swimlaneFillColor=#ffffff;rounded=0;shadow=0;comic=0;labelBackgroundColor=none;strokeWidth=1;fillColor=#a20025;fontFamily=Verdana;fontSize=12;strokeColor=#6F0000;fontColor=#ffffff;" parent="1" vertex="1">
                    <mxGeometry x="820" y="570" width="160" height="82" as="geometry"/>
                </mxCell>
                <mxCell id="UkoYvVbDAvJKvkNs7AJX-71" value="&lt;div&gt;date: Date&lt;/div&gt;" style="text;html=1;strokeColor=none;fillColor=none;align=left;verticalAlign=top;spacingLeft=4;spacingRight=4;whiteSpace=wrap;overflow=hidden;rotatable=0;points=[[0,0.5],[1,0.5]];portConstraint=eastwest;" parent="UkoYvVbDAvJKvkNs7AJX-69" vertex="1">
                    <mxGeometry y="30" width="160" height="26" as="geometry"/>
                </mxCell>
                <mxCell id="UkoYvVbDAvJKvkNs7AJX-72" value="totalSales: number" style="text;html=1;strokeColor=none;fillColor=none;align=left;verticalAlign=top;spacingLeft=4;spacingRight=4;whiteSpace=wrap;overflow=hidden;rotatable=0;points=[[0,0.5],[1,0.5]];portConstraint=eastwest;" parent="UkoYvVbDAvJKvkNs7AJX-69" vertex="1">
                    <mxGeometry y="56" width="160" height="26" as="geometry"/>
                </mxCell>
                <mxCell id="UkoYvVbDAvJKvkNs7AJX-73" style="edgeStyle=orthogonalEdgeStyle;rounded=0;orthogonalLoop=1;jettySize=auto;html=1;exitX=1;exitY=0.5;exitDx=0;exitDy=0;entryX=0;entryY=0.25;entryDx=0;entryDy=0;" parent="1" source="UkoYvVbDAvJKvkNs7AJX-25" target="UkoYvVbDAvJKvkNs7AJX-17" edge="1">
                    <mxGeometry relative="1" as="geometry">
                        <Array as="points">
                            <mxPoint x="250" y="470"/>
                            <mxPoint x="300" y="470"/>
                            <mxPoint x="300" y="388"/>
                        </Array>
                    </mxGeometry>
                </mxCell>
                <mxCell id="UkoYvVbDAvJKvkNs7AJX-76" style="edgeStyle=orthogonalEdgeStyle;rounded=0;orthogonalLoop=1;jettySize=auto;html=1;exitX=1;exitY=0.5;exitDx=0;exitDy=0;entryX=0;entryY=0.5;entryDx=0;entryDy=0;" parent="1" source="UkoYvVbDAvJKvkNs7AJX-25" target="UkoYvVbDAvJKvkNs7AJX-5" edge="1">
                    <mxGeometry relative="1" as="geometry">
                        <Array as="points">
                            <mxPoint x="290" y="447"/>
                            <mxPoint x="290" y="310"/>
                            <mxPoint x="530" y="310"/>
                            <mxPoint x="530" y="109"/>
                        </Array>
                    </mxGeometry>
                </mxCell>
                <mxCell id="UkoYvVbDAvJKvkNs7AJX-77" style="edgeStyle=orthogonalEdgeStyle;rounded=0;orthogonalLoop=1;jettySize=auto;html=1;exitX=1;exitY=0.5;exitDx=0;exitDy=0;entryX=0;entryY=0.5;entryDx=0;entryDy=0;" parent="1" source="UkoYvVbDAvJKvkNs7AJX-74" target="78961159f06e98e8-21" edge="1">
                    <mxGeometry relative="1" as="geometry">
                        <Array as="points">
                            <mxPoint x="270" y="421"/>
                            <mxPoint x="270" y="119"/>
                        </Array>
                    </mxGeometry>
                </mxCell>
                <mxCell id="UkoYvVbDAvJKvkNs7AJX-78" style="edgeStyle=orthogonalEdgeStyle;rounded=0;orthogonalLoop=1;jettySize=auto;html=1;exitX=1;exitY=0.5;exitDx=0;exitDy=0;" parent="1" source="UkoYvVbDAvJKvkNs7AJX-50" target="UkoYvVbDAvJKvkNs7AJX-51" edge="1">
                    <mxGeometry relative="1" as="geometry">
                        <Array as="points">
                            <mxPoint x="270" y="755"/>
                            <mxPoint x="270" y="590"/>
                        </Array>
                    </mxGeometry>
                </mxCell>
                <mxCell id="UkoYvVbDAvJKvkNs7AJX-79" style="edgeStyle=orthogonalEdgeStyle;rounded=0;orthogonalLoop=1;jettySize=auto;html=1;exitX=0;exitY=0.5;exitDx=0;exitDy=0;entryX=1;entryY=0.5;entryDx=0;entryDy=0;" parent="1" source="UkoYvVbDAvJKvkNs7AJX-9" target="UkoYvVbDAvJKvkNs7AJX-52" edge="1">
                    <mxGeometry relative="1" as="geometry">
                        <Array as="points">
                            <mxPoint x="70" y="239"/>
                            <mxPoint x="70" y="520"/>
                            <mxPoint x="470" y="520"/>
                            <mxPoint x="470" y="623"/>
                        </Array>
                    </mxGeometry>
                </mxCell>
                <mxCell id="UkoYvVbDAvJKvkNs7AJX-81" style="edgeStyle=orthogonalEdgeStyle;rounded=0;orthogonalLoop=1;jettySize=auto;html=1;exitX=1;exitY=0.5;exitDx=0;exitDy=0;entryX=0.003;entryY=0.121;entryDx=0;entryDy=0;entryPerimeter=0;" parent="1" source="UkoYvVbDAvJKvkNs7AJX-34" target="UkoYvVbDAvJKvkNs7AJX-35" edge="1">
                    <mxGeometry relative="1" as="geometry"/>
                </mxCell>
            </root>
        </mxGraphModel>
    </diagram>
</mxfile>